<svg xmlns="http://www.w3.org/2000/svg" width="21" height="14" viewBox="0 0 21 14">
    <path fill="#FFF" fill-rule="evenodd" d="M9.958 1.492c.409.597.614 1.307.614 2.137 0 .854-.205 1.542-.619 2.061-.234.291-.574.558-1.025.798.685.261 1.2.673 1.55 1.236.349.562.522 1.247.522 2.051 0 .829-.198 1.574-.597 2.231-.253.436-.57.805-.95 1.102a3.62 3.62 0 0 1-1.514.703A8.876 8.876 0 0 1 6.043 14H0V0h6.481c1.637.027 2.794.523 3.477 1.492zM3 2v3h3.12c.556 0 1.01-.113 1.359-.339C7.824 4.438 8 4.04 8 3.47c0-.634-.23-1.052-.69-1.257C6.913 2.072 6.408 2 5.794 2H3zm0 6v4h2.962c.53 0 .942-.088 1.236-.263.536-.328.802-.951.802-1.872 0-.783-.257-1.318-.776-1.61-.29-.163-.697-.25-1.22-.255H3zm15.363-4.514c.705.324 1.285.836 1.74 1.534.417.617.685 1.331.807 2.144.07.477.1 1.163.087 2.06h-7.345c.043 1.04.392 1.77 1.055 2.188.404.26.888.39 1.455.39.598 0 1.087-.158 1.462-.475.207-.172.387-.41.543-.715h2.692c-.07.615-.397 1.24-.977 1.877C18.98 13.496 17.714 14 16.09 14c-1.342 0-2.528-.424-3.55-1.276-1.03-.85-1.54-2.235-1.54-4.15 0-1.8.462-3.176 1.387-4.137C13.314 3.481 14.515 3 15.992 3c.877 0 1.669.161 2.371.486zM14.62 5.54C14.29 5.9 14.084 6.386 14 7h4c-.041-.655-.25-1.152-.617-1.491C17.01 5.169 16.55 5 16.004 5c-.594 0-1.058.18-1.385.54zM13 3h6V1h-6v2z"/>
</svg>
