<svg xmlns="http://www.w3.org/2000/svg" width="17" height="24" viewBox="0 0 17 24">
    <path fill="#FFF" fill-rule="evenodd" d="M13.043 9.956c.749-2 1.333-3.651 1.752-4.953.42-1.302.63-2.102.63-2.399 0-.318-.07-.566-.21-.741a.699.699 0 0 0-.579-.264c-.313 0-.631.255-.956.766-.324.511-.681 1.333-1.073 2.465l-1.676 4.763 2.112.363zm-2.23 4.434c-.48-.022-.936-.071-1.366-.148a7.345 7.345 0 0 1-1.232-.33c.179.352.338.703.478 1.055.14.352.254.698.343 1.039.269-.33.551-.63.847-.899.296-.269.606-.508.93-.717zM8.92 9.396L7.11 4.253c-.47-1.308-.833-2.162-1.09-2.563-.258-.402-.537-.602-.839-.602a.705.705 0 0 0-.57.264c-.145.175-.217.412-.217.708 0 .506.195 1.385.586 2.638.391 1.253.978 2.895 1.76 4.928a.556.556 0 0 1 .286-.255c.123-.05.29-.074.503-.074.067 0 .2.005.402.016.201.011.53.039.99.083zm-1.643 7.961c.19 0 .363-.085.52-.255a.803.803 0 0 0 .235-.552c0-.209-.154-.695-.462-1.46a14.532 14.532 0 0 0-1.148-2.25c-.335-.549-.665-.963-.989-1.244-.324-.28-.632-.42-.922-.42-.235 0-.495.146-.78.437-.285.291-.427.563-.427.816 0 .263.14.66.419 1.187.28.527.654 1.087 1.123 1.68.492.65.956 1.155 1.392 1.517.436.363.782.544 1.04.544zm-5.03-.395c.157.187.375.461.654.824.738 1 1.42 1.5 2.046 1.5a.898.898 0 0 0 .57-.198c.167-.132.251-.27.251-.412 0-.165-.112-.44-.335-.824a10.65 10.65 0 0 0-.922-1.302c-.447-.56-.82-.97-1.115-1.228-.296-.258-.534-.388-.713-.388-.391 0-.751.206-1.08.618-.33.412-.495.899-.495 1.46 0 .45.114.953.343 1.507.23.555.562 1.113.998 1.673a6.63 6.63 0 0 0 2.456 2.003c.978.467 2.06.7 3.244.7 2.18 0 4.004-.799 5.474-2.398 1.47-1.599 2.204-3.601 2.204-6.008 0-.736-.056-1.321-.167-1.755-.112-.434-.296-.75-.554-.948-.458-.374-1.349-.709-2.674-1.006a18.933 18.933 0 0 0-4.149-.445c-.402 0-.687.066-.855.198-.168.132-.252.357-.252.676 0 .747.425 1.288 1.275 1.623.849.336 2.224.503 4.124.503h.687c.157 0 .283.058.378.173.094.116.159.289.192.52-.19.175-.58.376-1.173.601-.593.225-1.045.448-1.358.668a5.958 5.958 0 0 0-1.618 1.722c-.408.665-.612 1.294-.612 1.888 0 .362.086.8.26 1.31.173.511.26.827.26.948v.115l-.034.149c-.492-.033-.88-.316-1.165-.85-.285-.532-.427-1.244-.427-2.134v-.148a.75.75 0 0 1-.536.214c-.102 0-.197-.008-.286-.025a2.966 2.966 0 0 1-.302-.074 2.873 2.873 0 0 1 .1.627c0 .406-.161.755-.485 1.046-.325.292-.71.437-1.157.437-.704 0-1.42-.338-2.146-1.014-.727-.675-1.09-1.337-1.09-1.986 0-.12.014-.228.042-.321a.549.549 0 0 1 .143-.24zm12.004-6.726c1.006.187 1.716.605 2.13 1.253.413.649.62 1.67.62 3.066 0 2.77-.847 5.036-2.54 6.8C12.767 23.118 10.601 24 7.964 24a8.522 8.522 0 0 1-3.027-.552c-.978-.368-1.819-.882-2.523-1.541-.805-.726-1.408-1.492-1.81-2.3A5.504 5.504 0 0 1 0 17.127c0-.946.207-1.676.62-2.193.414-.516 1.067-.868 1.962-1.055a8.723 8.723 0 0 1-.369-.972c-.078-.264-.117-.467-.117-.61 0-.495.265-1 .796-1.517.53-.516 1.031-.774 1.5-.774.202 0 .414.035.638.107.223.071.48.19.77.354-.86-2.396-1.486-4.244-1.877-5.547-.391-1.302-.587-2.2-.587-2.695 0-.681.179-1.222.537-1.623C4.23.2 4.717 0 5.33 0c1.05 0 2.381 2.308 3.99 6.923.28.791.492 1.401.638 1.83l.52-1.45C12.087 2.73 13.473.444 14.635.444c.57 0 1.025.19 1.366.569.341.379.512.887.512 1.524 0 .484-.187 1.369-.562 2.654-.375 1.286-.942 2.967-1.702 5.044z"/>
</svg>
